<svg xmlns="http://www.w3.org/2000/svg" fill="none" viewBox="0 0 161 80" class="MuiSvgIcon-root MuiSvgIcon-fontSizeMedium mui-1uj6yoh" focusable="false" aria-hidden="true" width="160" height="60"><path fill="#FFF7D6" fill-rule="evenodd" d="M52.595 16a8 8 0 1 0 0 16 8 8 0 0 0 0-16" clip-rule="evenodd"></path><path fill="#FFCD00" fill-rule="evenodd" d="M52.596 38a2 2 0 0 1 2 2v2a2 2 0 0 1-4 0v-2a2 2 0 0 1 2-2m-7-1.876a2 2 0 0 1 .732 2.732l-1 1.733a2 2 0 0 1-3.465-2l1-1.733a2 2 0 0 1 2.732-.732m16.732.732 1 1.733a2 2 0 0 1-3.465 2l-1-1.733a2 2 0 0 1 3.465-2M52.595 12c6.628 0 12 5.372 12 12 0 6.627-5.372 12-12 12-6.627 0-12-5.373-12-12 0-6.628 5.373-12 12-12M40.472 31a2 2 0 0 1-.732 2.732l-1.732 1a2 2 0 1 1-2-3.464l1.732-1a2 2 0 0 1 2.732.732m26.98-.732 1.733 1a2 2 0 1 1-2 3.464l-1.732-1a2 2 0 0 1 2-3.464M52.596 16a8 8 0 1 0 0 16 8 8 0 0 0 0-16m-16 6a2 2 0 0 1 0 4h-2a2 2 0 0 1 0-4zm34 0a2 2 0 0 1 0 4h-2a2 2 0 1 1 0-4zm-.679-8a2 2 0 0 1-.732 2.732l-1.732 1a2 2 0 1 1-2-3.464l1.732-1a2 2 0 0 1 2.732.732m-31.91-.732 1.733 1a2 2 0 1 1-2 3.464l-1.732-1a2 2 0 0 1 2-3.464m24.59-6.589a2 2 0 0 1 .732 2.732l-1 1.732a2 2 0 0 1-3.465-2l1-1.732a2 2 0 0 1 2.733-.732m-17.268.732 1 1.732a2 2 0 0 1-3.465 2l-1-1.732a2 2 0 1 1 3.465-2M52.595 4a2 2 0 0 1 2 2v2a2 2 0 1 1-4 0V6a2 2 0 0 1 2-2" clip-rule="evenodd"></path><path fill="#651C32" fill-rule="evenodd" d="M92.6 14c4.285 0 5.51 1.53 5.86 5.685l.068 1.048.054 1.768L98.6 26h6c4.286 0 5.51 1.53 5.86 5.685l.068 1.048.054 1.769L110.6 38l-.005 14.712-.036 2.68-.04 1.32-.058 1.3-.082 1.276q-.024.315-.051.629l-.124 1.234q-.035.305-.074.605l-.175 1.184c-1.032 6.214-3.714 10.776-10.689 11.047L98.6 74h-36c-7.472 0-10.291-4.652-11.355-11.06l-.175-1.184q-.039-.3-.074-.605l-.124-1.234-.095-1.264-.07-1.289-.066-1.971-.036-2.681.004-17.567.039-1.849.054-1.1c.283-4.366 1.354-6.064 5.398-6.189l.5-.007h12l.009-2.855.039-1.849.054-1.1.084-.997c.388-3.63 1.589-5.077 5.3-5.192l.499-.007zm3 36a3 3 0 0 0-2.98 2.65l-.02.35v6a3 3 0 0 0 5.98.35l.02-.35v-6a3 3 0 0 0-3-3m-30-12a3 3 0 0 0-2.98 2.65l-.02.35v6a3 3 0 0 0 5.98.35l.02-.35v-6a3 3 0 0 0-3-3m18-12a3 3 0 0 0-2.98 2.65l-.02.35v6a3 3 0 0 0 5.98.35l.02-.35v-6a3 3 0 0 0-3-3" clip-rule="evenodd"></path><path fill="#B4C4B4" fill-rule="evenodd" d="M116.6 32.2c0-1.215.989-2.2 2.21-2.2 1.22 0 2.21.985 2.21 2.2v6.6h8.839v-6.6c0-1.215.99-2.2 2.21-2.2 1.221 0 2.21.985 2.21 2.2v6.929a2.2 2.2 0 0 1 .658.625l21.27 30.8c1.008 1.46-.041 3.446-1.821 3.446h-12.315a2.21 2.21 0 0 1-1.821-.954l-5.971-8.646v7.4c0 1.215-.989 2.2-2.21 2.2-1.22 0-2.21-.985-2.21-2.2v-4.4h-8.839v4.4c0 1.215-.99 2.2-2.21 2.2a2.205 2.205 0 0 1-2.21-2.2zm12.154 24.2 1.105 1.6v5h-8.839v-6.6zm-3.038-4.4-4.696-6.8V52z" clip-rule="evenodd"></path></svg>
